<svg width="148" height="220" viewBox="0 0 148 220" fill="none" xmlns="http://www.w3.org/2000/svg">
<path d="M137.331 217.8C137.331 219.015 136.346 220 135.131 220H117.05H30.9505H12.8696C11.6547 220 10.6696 219.015 10.6696 217.8C10.6696 216.585 11.6547 215.6 12.8696 215.6H23.6254C23.1634 214.738 22.847 213.784 22.715 212.767L16.3728 164.065C16.2158 162.86 17.0654 161.756 18.2706 161.599C19.4718 161.443 20.5792 162.291 20.7363 163.497L27.0785 212.199C27.331 214.138 28.9956 215.6 30.9509 215.6H117.05C119.005 215.6 120.67 214.138 120.923 212.199L127.265 163.497C127.421 162.292 128.526 161.442 129.73 161.599C130.935 161.755 131.785 162.859 131.628 164.065L125.286 212.767C125.154 213.784 124.838 214.738 124.376 215.6H135.132C136.346 215.6 137.331 216.585 137.331 217.8ZM4.16901 215.6H2.29241C1.07757 215.6 0.0924072 216.585 0.0924072 217.8C0.0924072 219.015 1.07757 220 2.29241 220H4.16901C5.38385 220 6.36901 219.015 6.36901 217.8C6.36901 216.585 5.38385 215.6 4.16901 215.6ZM145.708 215.6H143.831C142.616 215.6 141.631 216.585 141.631 217.8C141.631 219.015 142.616 220 143.831 220H145.708C146.923 220 147.908 219.015 147.908 217.8C147.908 216.585 146.923 215.6 145.708 215.6ZM92.7362 129.353C92.7731 129.354 92.8101 129.355 92.8466 129.355C94.0113 129.355 94.9837 128.44 95.0422 127.264C95.3159 121.737 94.2401 116.165 91.9301 111.15L75.9981 76.5578C75.6391 75.7781 74.859 75.2783 74.0001 75.2783C73.1412 75.2783 72.3611 75.7781 72.0016 76.5578L56.0701 111.149C53.7601 116.164 52.6843 121.737 52.958 127.264C53.0178 128.477 54.0421 129.415 55.264 129.353C56.4775 129.292 57.4125 128.26 57.3522 127.046C57.1138 122.225 58.0518 117.364 60.0662 112.99L74.0001 82.7372L87.9336 112.991C89.9479 117.364 90.8864 122.225 90.6475 127.046C90.5872 128.26 91.5222 129.293 92.7362 129.353ZM69.1711 9.229H71.8001V11.858C71.8001 13.0733 72.7852 14.058 74.0001 14.058C75.2154 14.058 76.2001 13.0733 76.2001 11.858V9.229H78.8291C80.0444 9.229 81.0291 8.24428 81.0291 7.029C81.0291 5.81372 80.0444 4.829 78.8291 4.829H76.2001V2.2C76.2001 0.98472 75.2154 0 74.0001 0C72.7852 0 71.8001 0.98472 71.8001 2.2V4.829H69.1711C67.9562 4.829 66.9711 5.81372 66.9711 7.029C66.9711 8.24428 67.9562 9.229 69.1711 9.229ZM40.927 33.4752H43.556V36.1038C43.556 37.319 44.5412 38.3038 45.756 38.3038C46.9709 38.3038 47.956 37.319 47.956 36.1038V33.4752H50.585C51.7999 33.4752 52.785 32.4905 52.785 31.2752C52.785 30.0599 51.7999 29.0752 50.585 29.0752H47.956V26.4462C47.956 25.2309 46.9709 24.2462 45.756 24.2462C44.5412 24.2462 43.556 25.2309 43.556 26.4462V29.0752H40.927C39.7122 29.0752 38.727 30.0599 38.727 31.2752C38.727 32.4905 39.7122 33.4752 40.927 33.4752ZM97.4156 33.4752H100.045V36.1038C100.045 37.319 101.029 38.3038 102.245 38.3038C103.46 38.3038 104.445 37.319 104.445 36.1038V33.4752H107.073C108.288 33.4752 109.273 32.4905 109.273 31.2752C109.273 30.0599 108.288 29.0752 107.073 29.0752H104.445V26.4462C104.445 25.2309 103.46 24.2462 102.245 24.2462C101.029 24.2462 100.045 25.2309 100.045 26.4462V29.0752H97.4156C96.2003 29.0752 95.2156 30.0599 95.2156 31.2752C95.2156 32.4905 96.2003 33.4752 97.4156 33.4752ZM45.5514 157.814C46.7663 157.814 47.7514 156.83 47.7514 155.614C47.7514 154.399 46.7663 153.414 45.5514 153.414H42.8212C41.6064 153.414 40.6212 154.399 40.6212 155.614C40.6212 156.83 41.6064 157.814 42.8212 157.814H45.5514ZM13.5049 157.814H33.8215C35.0363 157.814 36.0215 156.83 36.0215 155.614C36.0215 154.399 35.0363 153.414 33.8215 153.414H13.5049C9.03673 153.414 5.40145 149.779 5.40145 145.31C5.40145 140.842 9.03673 137.207 13.5049 137.207H134.496C138.964 137.207 142.6 140.842 142.6 145.31C142.6 149.779 138.964 153.414 134.496 153.414H55.1157C53.9009 153.414 52.9157 154.399 52.9157 155.614C52.9157 156.83 53.9009 157.814 55.1157 157.814H134.496C141.39 157.814 147 152.205 147 145.31C147 138.416 141.39 132.807 134.496 132.807H13.5049C6.61057 132.807 1.00145 138.416 1.00145 145.31C1.00145 152.205 6.61013 157.814 13.5049 157.814ZM20.9568 124.41C21.5494 126.014 22.2798 127.607 23.1286 129.144C23.5299 129.87 24.2814 130.28 25.0562 130.28C25.4157 130.28 25.7805 130.192 26.118 130.006C27.1814 129.419 27.5678 128.08 26.9804 127.017C26.2385 125.673 25.601 124.283 25.0844 122.885L13.5445 91.6406L44.7889 103.18C46.7073 103.889 48.5549 104.793 50.2797 105.868C50.6418 106.094 51.0435 106.201 51.4408 106.201C52.1752 106.201 52.8933 105.833 53.3104 105.164C53.9528 104.133 53.6378 102.776 52.6064 102.133C50.6282 100.901 48.5113 99.865 46.3135 99.0528L38.2672 96.081C37.151 93.2549 36.5622 90.2845 36.5156 87.2375L36.0941 59.7269L57.2744 77.2886C58.5402 78.3385 59.715 79.5282 60.7662 80.8245C61.5309 81.7683 62.9165 81.9135 63.8607 81.1479C64.8045 80.3827 64.9493 78.9972 64.1841 78.0538C62.9512 76.5327 61.5714 75.1357 60.0829 73.9015L58.9714 72.9797C58.546 68.2136 59.371 63.4212 61.376 59.0669L74.0001 31.6571L86.6241 59.0674C88.6296 63.422 89.4546 68.2145 89.0287 72.9806L87.9177 73.902C86.4288 75.1366 85.0489 76.5332 83.8165 78.0542C83.0513 78.998 83.1961 80.3832 84.1399 81.1483C85.0832 81.913 86.4684 81.7687 87.234 80.8249C88.2851 79.5291 89.4599 78.3394 90.7262 77.2891L111.906 59.7274L111.485 87.2379C111.439 90.2845 110.85 93.2549 109.733 96.0815L101.687 99.0532C99.488 99.8655 97.3694 100.903 95.3902 102.136C94.3589 102.779 94.0438 104.136 94.6867 105.167C95.1034 105.836 95.8214 106.204 96.5558 106.204C96.9531 106.204 97.3553 106.096 97.7174 105.87C99.4435 104.795 101.292 103.89 103.211 103.181L112.157 99.8769C112.157 99.8769 112.158 99.8765 112.159 99.876L134.456 91.641L122.915 122.885C122.399 124.284 121.761 125.674 121.019 127.017C120.432 128.081 120.818 129.419 121.882 130.006C122.219 130.192 122.584 130.281 122.943 130.281C123.718 130.281 124.47 129.87 124.871 129.144C125.719 127.607 126.45 126.015 127.043 124.41L140.238 88.6851C140.535 87.8794 140.337 86.9744 139.729 86.3672C139.122 85.7591 138.217 85.5615 137.412 85.859L114.967 94.1481C115.536 91.9191 115.848 89.632 115.883 87.3052L116.378 55.0185C116.391 54.16 115.903 53.3724 115.129 53.0011C114.354 52.6297 113.435 52.7437 112.774 53.2915L93.5084 69.2657C93.3425 65.1182 92.3705 61.0289 90.6193 57.2268L75.9972 25.4782C75.6382 24.6985 74.8581 24.1987 73.9992 24.1987C73.1403 24.1987 72.3602 24.6985 72.0007 25.4782L57.3782 57.2268C55.6274 61.0289 54.6555 65.1182 54.4896 69.2652L35.2246 53.291C34.5642 52.7437 33.6446 52.6293 32.8693 53.0006C32.0949 53.372 31.6074 54.1596 31.6206 55.018L32.1152 87.3052C32.1508 89.632 32.4628 91.9191 33.0317 94.1477L10.5873 85.8585C9.78165 85.5611 8.87613 85.7586 8.26937 86.3667C7.66217 86.9739 7.46373 87.879 7.76117 88.6846L20.9568 124.41ZM102.244 176.868C107.158 176.868 111.157 180.866 111.157 185.781C111.157 190.696 107.158 194.695 102.244 194.695C97.3289 194.695 93.3302 190.696 93.3302 185.781C93.3302 180.866 97.3293 176.868 102.244 176.868ZM102.244 181.268C99.755 181.268 97.7302 183.293 97.7302 185.781C97.7302 188.27 99.755 190.295 102.244 190.295C104.732 190.295 106.757 188.27 106.757 185.781C106.757 183.293 104.733 181.268 102.244 181.268ZM74.0001 176.868C78.9149 176.868 82.9136 180.866 82.9136 185.781C82.9136 190.696 78.9149 194.694 74.0001 194.694C69.0853 194.694 65.0866 190.696 65.0866 185.781C65.0866 180.866 69.0853 176.868 74.0001 176.868ZM74.0001 181.268C71.5114 181.268 69.4866 183.293 69.4866 185.781C69.4866 188.27 71.5114 190.295 74.0001 190.295C76.4887 190.295 78.5136 188.27 78.5136 185.781C78.5136 183.293 76.4887 181.268 74.0001 181.268ZM45.7565 176.868C50.6713 176.868 54.67 180.866 54.67 185.781C54.67 190.696 50.6713 194.695 45.7565 194.695C40.8417 194.695 36.843 190.696 36.843 185.781C36.843 180.866 40.8412 176.868 45.7565 176.868ZM41.2425 185.781C41.2425 188.269 43.2674 190.294 45.756 190.294C48.2447 190.294 50.2696 188.269 50.2696 185.781C50.2696 183.292 48.2447 181.267 45.756 181.267C43.2674 181.267 41.2425 183.292 41.2425 185.781Z" fill="#1C1D21"/>
</svg>
