<svg width="22" height="22" viewBox="0 0 22 22" fill="none" xmlns="http://www.w3.org/2000/svg">
<path d="M16.1456 14.2224C17.477 12.4056 18.0733 10.1531 17.8152 7.91549C17.5572 5.67789 16.4638 3.62025 14.7537 2.15421C13.0437 0.688172 10.8432 -0.0781393 8.59247 0.00858624C6.34171 0.0953118 4.2067 1.02868 2.61456 2.62195C1.02243 4.21523 0.0905885 6.35091 0.00547346 8.60173C-0.0796416 10.8525 0.688244 13.0525 2.15551 14.7615C3.62277 16.4704 5.68119 17.5624 7.91897 17.8188C10.1567 18.0753 12.4088 17.4774 14.2247 16.1447H14.2233C14.2646 16.1997 14.3086 16.2519 14.3581 16.3028L19.6518 21.5965C19.9096 21.8545 20.2594 21.9996 20.6241 21.9997C20.9889 21.9998 21.3388 21.855 21.5968 21.5972C21.8548 21.3394 21.9998 20.9896 21.9999 20.6249C22 20.2601 21.8553 19.9103 21.5974 19.6523L16.3037 14.3585C16.2545 14.3088 16.2017 14.2628 16.1456 14.221V14.2224ZM16.5003 8.93691C16.5003 9.93003 16.3047 10.9134 15.9247 11.8309C15.5446 12.7485 14.9876 13.5822 14.2853 14.2844C13.5831 14.9866 12.7494 15.5437 11.8319 15.9237C10.9143 16.3038 9.93094 16.4994 8.93782 16.4994C7.9447 16.4994 6.9613 16.3038 6.04378 15.9237C5.12625 15.5437 4.29257 14.9866 3.59032 14.2844C2.88808 13.5822 2.33103 12.7485 1.95098 11.8309C1.57093 10.9134 1.37532 9.93003 1.37532 8.93691C1.37532 6.93121 2.17208 5.00765 3.59032 3.58941C5.00857 2.17117 6.93212 1.37441 8.93782 1.37441C10.9435 1.37441 12.8671 2.17117 14.2853 3.58941C15.7036 5.00765 16.5003 6.93121 16.5003 8.93691Z" fill="white"/>
</svg>
