<svg width="64" height="17" viewBox="0 0 64 17" fill="none" xmlns="http://www.w3.org/2000/svg">
<path d="M12.178 11.49C12.178 12.942 11.782 14.0567 10.99 14.834C10.2127 15.6113 9.12 16 7.712 16H5.6C3.86933 16 2.63733 15.6993 1.904 15.098C1.18533 14.4967 0.826 13.4553 0.826 11.974V0.336H7.448C8.944 0.336 10.066 0.71 10.814 1.458C11.5767 2.206 11.958 3.262 11.958 4.626C11.958 5.418 11.7527 6.09267 11.342 6.65C10.946 7.20733 10.506 7.60333 10.022 7.838C11.4593 8.51267 12.178 9.73 12.178 11.49ZM7.206 6.452C8.33533 6.452 8.9 5.88733 8.9 4.758C8.9 3.62867 8.33533 3.064 7.206 3.064H3.884V6.452H7.206ZM9.12 11.336C9.12 10.632 8.99533 10.104 8.746 9.752C8.49667 9.38533 8.04933 9.202 7.404 9.202H3.884V11.666C3.884 12.2673 4.03067 12.6853 4.324 12.92C4.632 13.1547 5.13067 13.272 5.82 13.272H7.404C8.548 13.272 9.12 12.6267 9.12 11.336ZM24.9645 16H20.3005C18.5405 16 17.2645 15.6627 16.4725 14.988C15.6951 14.2987 15.3065 13.184 15.3065 11.644V0.336H18.3645V11.644C18.3645 12.26 18.5038 12.6853 18.7825 12.92C19.0611 13.1547 19.5671 13.272 20.3005 13.272H24.9645V16ZM30.4602 16H27.4022V0.336H30.4602V16ZM44.6653 11.38C44.6653 12.8613 44.1226 14.0273 43.0373 14.878C41.952 15.714 40.566 16.132 38.8793 16.132C37.5446 16.132 36.254 15.7653 35.0073 15.032C34.3913 14.6507 33.8853 14.1153 33.4893 13.426C33.0933 12.722 32.8953 11.9227 32.8953 11.028L35.6673 10.896C35.6673 11.688 36.0046 12.304 36.6793 12.744C37.354 13.184 38.102 13.404 38.9233 13.404C40.7566 13.404 41.6733 12.7587 41.6733 11.468C41.6733 10.412 41.05 9.78867 39.8033 9.598L37.2513 9.334C35.9753 9.14333 34.9633 8.68867 34.2153 7.97C33.4673 7.25133 33.0933 6.21733 33.0933 4.868C33.0933 3.51867 33.6286 2.404 34.6993 1.524C35.77 0.643999 37.1193 0.203999 38.7473 0.203999C40.39 0.203999 41.71 0.621999 42.7073 1.458C43.7046 2.27933 44.2033 3.34267 44.2033 4.648L41.4753 4.78C41.226 3.504 40.368 2.866 38.9013 2.866C38.0066 2.866 37.3026 3.05667 36.7893 3.438C36.2906 3.81933 36.0413 4.274 36.0413 4.802C36.0413 5.31533 36.2246 5.726 36.5913 6.034C36.958 6.32733 37.4126 6.51067 37.9553 6.584L40.4633 6.848C43.2646 7.22933 44.6653 8.74 44.6653 11.38ZM57.6633 11.38C57.6633 12.8613 57.1207 14.0273 56.0353 14.878C54.95 15.714 53.564 16.132 51.8773 16.132C50.5427 16.132 49.252 15.7653 48.0053 15.032C47.3893 14.6507 46.8833 14.1153 46.4873 13.426C46.0913 12.722 45.8933 11.9227 45.8933 11.028L48.6653 10.896C48.6653 11.688 49.0027 12.304 49.6773 12.744C50.352 13.184 51.1 13.404 51.9213 13.404C53.7547 13.404 54.6713 12.7587 54.6713 11.468C54.6713 10.412 54.048 9.78867 52.8013 9.598L50.2493 9.334C48.9733 9.14333 47.9613 8.68867 47.2133 7.97C46.4653 7.25133 46.0913 6.21733 46.0913 4.868C46.0913 3.51867 46.6267 2.404 47.6973 1.524C48.768 0.643999 50.1173 0.203999 51.7453 0.203999C53.388 0.203999 54.708 0.621999 55.7053 1.458C56.7027 2.27933 57.2013 3.34267 57.2013 4.648L54.4733 4.78C54.224 3.504 53.366 2.866 51.8993 2.866C51.0047 2.866 50.3007 3.05667 49.7873 3.438C49.2887 3.81933 49.0393 4.274 49.0393 4.802C49.0393 5.31533 49.2227 5.726 49.5893 6.034C49.956 6.32733 50.4107 6.51067 50.9533 6.584L53.4613 6.848C56.2627 7.22933 57.6633 8.74 57.6633 11.38ZM62.8954 13.052C63.1301 13.272 63.2474 13.7487 63.2474 14.482C63.2474 15.2153 63.1301 15.6993 62.8954 15.934C62.6754 16.1687 62.1987 16.286 61.4654 16.286C60.7321 16.286 60.2481 16.1687 60.0134 15.934C59.7787 15.6993 59.6614 15.2153 59.6614 14.482C59.6614 13.7487 59.7787 13.272 60.0134 13.052C60.2481 12.8173 60.7321 12.7 61.4654 12.7C62.1987 12.7 62.6754 12.8173 62.8954 13.052Z" fill="white"/>
</svg>
