<svg width="25" height="25" viewBox="0 0 25 25" fill="none" xmlns="http://www.w3.org/2000/svg">
<path d="M16.2883 12.2242C15.8503 11.943 15.375 11.7248 14.8763 11.5761C14.5703 11.4832 14.2315 11.3925 13.8818 11.3062C13.5758 11.2209 13.213 11.1335 12.7649 11.0352C12.2302 10.9231 11.7054 10.7681 11.1956 10.5718C10.9328 10.4697 10.7009 10.3014 10.5224 10.0833C10.3917 9.90478 10.3296 9.68522 10.3475 9.46473C10.3471 9.22831 10.426 8.99859 10.5715 8.81229C10.7753 8.57368 11.0395 8.39436 11.3365 8.29318C11.8361 8.12153 12.3626 8.04156 12.8906 8.05713C13.2991 8.05035 13.7065 8.10412 14.0993 8.21668C14.3598 8.28998 14.6052 8.40915 14.8238 8.56858C14.9653 8.66951 15.0859 8.79679 15.179 8.94343C15.2465 9.07079 15.3385 9.18354 15.4497 9.27519C15.5609 9.36684 15.6892 9.43559 15.8271 9.47748C15.965 9.51936 16.1098 9.53355 16.2533 9.51924C16.3967 9.50492 16.5358 9.46238 16.6627 9.39407C16.7896 9.32575 16.9018 9.23301 16.9927 9.12117C17.0836 9.00934 17.1515 8.88064 17.1925 8.74246C17.2334 8.60428 17.2467 8.45936 17.2314 8.31605C17.2162 8.17273 17.1727 8.03385 17.1035 7.9074C16.8731 7.49979 16.5618 7.14352 16.1888 6.86045C15.7579 6.52939 15.269 6.28146 14.7473 6.12933C14.1451 5.9514 13.5196 5.86447 12.8917 5.87141C12.0934 5.85423 11.2989 5.98389 10.5475 6.25391C9.86798 6.50128 9.27107 6.93353 8.82405 7.50196C8.3959 8.06716 8.16411 8.75676 8.16397 9.46582C8.14624 10.1717 8.36984 10.8626 8.79782 11.4242C9.21101 11.9446 9.75264 12.3484 10.3694 12.5958C10.8353 12.7751 11.3125 12.924 11.7977 13.0416C11.8065 13.0449 11.813 13.0526 11.8218 13.0548C12.0316 13.1181 12.366 13.2023 12.849 13.3061C13.0381 13.3476 13.2152 13.3925 13.3922 13.4373C13.4097 13.4416 13.4348 13.4471 13.4512 13.4526L13.4709 13.4547C13.7419 13.5247 14.0031 13.5957 14.2424 13.6689C14.5365 13.755 14.8171 13.8815 15.0763 14.0449C15.2379 14.1464 15.3737 14.2841 15.473 14.4471C15.5691 14.6459 15.6134 14.8658 15.602 15.0864C15.6171 15.3719 15.5346 15.654 15.3681 15.8864C15.1432 16.179 14.839 16.4009 14.4916 16.5257C13.9739 16.7255 13.4212 16.8192 12.8665 16.8011C12.2251 16.8257 11.587 16.6968 11.0054 16.4251C10.7368 16.2821 10.506 16.0772 10.3322 15.8273C10.2102 15.6675 10.1339 15.4775 10.1114 15.2776C10.1114 14.9878 9.9963 14.7098 9.79135 14.5049C9.5864 14.2999 9.30842 14.1848 9.01858 14.1848C8.72874 14.1848 8.45076 14.2999 8.24581 14.5049C8.04086 14.7098 7.92572 14.9878 7.92572 15.2776C7.94374 15.9225 8.15547 16.547 8.53335 17.0699C8.91101 17.6138 9.41406 18.0587 9.99997 18.3671C10.8914 18.8021 11.875 19.0147 12.8665 18.9868C13.7091 19.0072 14.5471 18.8566 15.3298 18.5442C16.0575 18.265 16.6892 17.782 17.1494 17.153C17.5869 16.5402 17.8111 15.8007 17.7877 15.0481C17.7978 14.4647 17.6566 13.8887 17.3778 13.3761C17.1086 12.9133 16.7356 12.5194 16.2883 12.2253V12.2242ZM24.1798 14.2766C24.4744 12.4806 24.3373 10.6402 23.7796 8.90769C23.222 7.17519 22.2599 5.60034 20.973 4.31339C19.686 3.02643 18.1112 2.06435 16.3787 1.50671C14.6462 0.949079 12.8058 0.811911 11.0098 1.10656C9.68371 0.470753 8.19299 0.262249 6.74337 0.509825C5.29376 0.7574 3.95673 1.44885 2.91686 2.48872C1.87699 3.52859 1.18554 4.86562 0.937963 6.31523C0.690388 7.76485 0.898892 9.25557 1.53469 10.5816C1.24029 12.3775 1.3776 14.2176 1.93527 15.9498C2.49294 17.6821 3.45494 19.2567 4.74174 20.5435C6.02854 21.8303 7.60316 22.7923 9.33541 23.35C11.0677 23.9076 12.9078 24.045 14.7036 23.7506C16.0297 24.3864 17.5204 24.5949 18.97 24.3473C20.4196 24.0997 21.7567 23.4083 22.7965 22.3684C23.8364 21.3285 24.5279 19.9915 24.7754 18.5419C25.023 17.0923 24.8145 15.6015 24.1787 14.2755L24.1798 14.2766ZM17.7746 22.2643C16.9453 22.2639 16.1296 22.0542 15.4031 21.6545C15.1776 21.5303 14.9158 21.4893 14.6632 21.5386C13.3163 21.8072 11.9266 21.7736 10.5943 21.4401C9.26202 21.1066 8.02036 20.4815 6.95889 19.61C5.89743 18.7385 5.04262 17.6423 4.45614 16.4004C3.86965 15.1585 3.56611 13.802 3.56741 12.4286C3.56853 11.8216 3.62856 11.2163 3.74664 10.621C3.79608 10.3684 3.75507 10.1065 3.6308 9.8811C3.11765 8.9478 2.92136 7.87313 3.07145 6.81869C3.22154 5.76425 3.70989 4.78703 4.46307 4.03397C5.21625 3.28092 6.19355 2.79273 7.24801 2.64281C8.30248 2.4929 9.37712 2.68936 10.3103 3.20266C10.5359 3.32746 10.7984 3.36849 11.0513 3.3185C12.3981 3.05005 13.7877 3.08384 15.1198 3.41743C16.452 3.75103 17.6935 4.37611 18.7548 5.24759C19.8162 6.11908 20.6709 7.21524 21.2573 8.45703C21.8437 9.69881 22.1472 11.0553 22.146 12.4286C22.1449 13.0355 22.0848 13.6408 21.9668 14.2361C21.9173 14.4887 21.9583 14.7506 22.0826 14.976C22.4948 15.7247 22.7048 16.568 22.6917 17.4226C22.6787 18.2772 22.4431 19.1136 22.0082 19.8494C21.5733 20.5852 20.9541 21.1949 20.2117 21.6183C19.4692 22.0418 18.6293 22.2644 17.7746 22.2643Z" fill="white"/>
</svg>
