<svg width="25" height="21" viewBox="0 0 25 21" fill="none" xmlns="http://www.w3.org/2000/svg">
<path d="M24.354 1.63091C24.354 1.43802 24.3029 1.24857 24.2059 1.08181C24.109 0.915053 23.9696 0.776927 23.802 0.681464C23.6344 0.586001 23.4445 0.536602 23.2516 0.538287C23.0587 0.539972 22.8697 0.592679 22.7038 0.691055C22.0638 1.07226 21.3748 1.3642 20.6558 1.55878C19.6295 0.67824 18.3207 0.196439 16.9685 0.201455C15.4852 0.203232 14.0606 0.781359 12.9956 1.81377C11.9305 2.84618 11.3084 4.25207 11.2605 5.73459C8.33577 5.26829 5.68502 3.7418 3.81375 1.44622C3.701 1.30958 3.55707 1.20203 3.39408 1.13261C3.23109 1.06319 3.05382 1.03394 2.87717 1.04733C2.70056 1.06194 2.53017 1.11933 2.3807 1.21453C2.23124 1.30973 2.10719 1.43989 2.01928 1.59375C1.5685 2.3805 1.30962 3.26247 1.26367 4.16804C1.21771 5.07361 1.38598 5.97726 1.75481 6.80559L1.75262 6.80668C1.58649 6.90876 1.44938 7.05183 1.35446 7.22216C1.25954 7.39248 1.20999 7.58434 1.21056 7.77933C1.20881 7.93975 1.21867 8.10009 1.24007 8.25909C1.35168 9.63396 1.96096 10.9209 2.95367 11.8786C2.88631 12.0071 2.84523 12.1476 2.83285 12.2921C2.82046 12.4366 2.83702 12.5821 2.88154 12.7201C3.31429 14.0689 4.23478 15.2076 5.46287 15.9135C4.21501 16.3959 2.86766 16.564 1.53951 16.4031C1.29381 16.3725 1.04501 16.4263 0.833864 16.5556C0.622719 16.6849 0.461744 16.8821 0.377302 17.1149C0.292861 17.3476 0.289959 17.6021 0.369071 17.8368C0.448183 18.0714 0.604621 18.2722 0.812762 18.4063C3.09706 19.8773 5.75672 20.6593 8.47369 20.6586C11.5547 20.6933 14.5608 19.7088 17.0245 17.8583C19.4881 16.0078 21.2711 13.3949 22.0962 10.4262C22.4819 9.13312 22.6788 7.79108 22.6808 6.44167L22.6797 6.2231C23.2504 5.6076 23.6924 4.88438 23.9799 4.09583C24.2674 3.30727 24.3946 2.46926 24.354 1.63091ZM20.741 5.14117C20.5603 5.35451 20.4687 5.62926 20.4853 5.90835C20.4962 6.08868 20.4951 6.27009 20.4951 6.44167C20.4928 7.58172 20.3257 8.71544 19.999 9.80767C19.3254 12.3339 17.8235 14.5611 15.7339 16.1324C13.6442 17.7037 11.0876 18.5283 8.47369 18.474C7.53507 18.4742 6.5997 18.3638 5.68691 18.1451C6.85114 17.7696 7.93967 17.1909 8.90209 16.4358C9.07956 16.2963 9.20946 16.1053 9.27395 15.8889C9.33844 15.6726 9.33435 15.4416 9.26225 15.2277C9.19014 15.0137 9.05356 14.8274 8.87126 14.6942C8.68897 14.5611 8.46991 14.4876 8.24419 14.484C7.33573 14.4698 6.46826 14.1034 5.8246 13.4622C5.9878 13.4316 6.14991 13.3933 6.31093 13.3474C6.54701 13.2803 6.75363 13.1357 6.8975 12.9368C7.04138 12.738 7.11412 12.4965 7.10402 12.2513C7.09393 12.006 7.00158 11.7713 6.84184 11.585C6.68211 11.3986 6.4643 11.2715 6.2235 11.224C5.69619 11.1199 5.2 10.8955 4.77353 10.5683C4.34706 10.2412 4.00179 9.82006 3.76457 9.33774C3.96211 9.36474 4.16091 9.38152 4.36018 9.38801C4.59698 9.39191 4.82887 9.32028 5.02222 9.18352C5.21558 9.04675 5.36035 8.85196 5.43555 8.62738C5.50773 8.4009 5.50411 8.15707 5.42522 7.93283C5.34633 7.7086 5.19649 7.5162 4.99841 7.3848C4.51748 7.06467 4.12347 6.63023 3.85168 6.12042C3.5799 5.6106 3.43882 5.04133 3.44108 4.4636C3.44108 4.39147 3.44327 4.31825 3.44764 4.24721C5.89724 6.53197 9.07467 7.8788 12.42 8.05035C12.5889 8.05677 12.7571 8.02468 12.9118 7.95652C13.0664 7.88836 13.2036 7.78591 13.3129 7.65693C13.4211 7.52715 13.4977 7.37404 13.5368 7.20964C13.5759 7.04523 13.5763 6.87401 13.538 6.70942C13.4754 6.44846 13.4435 6.18108 13.4429 5.91273C13.4441 4.97805 13.8159 4.08198 14.4768 3.42106C15.1377 2.76014 16.0338 2.38833 16.9685 2.38717C17.4495 2.38575 17.9256 2.48407 18.3667 2.67594C18.8078 2.8678 19.2043 3.14904 19.5312 3.50188C19.6573 3.63753 19.8159 3.73867 19.9921 3.79567C20.1683 3.85268 20.3561 3.86365 20.5377 3.82755C20.9867 3.74029 21.4292 3.62272 21.8623 3.47565C21.567 4.07981 21.1897 4.64028 20.741 5.14117Z" fill="white"/>
</svg>
